<svg width="49" height="52" viewBox="0 0 49 52" fill="none" xmlns="http://www.w3.org/2000/svg">
<path d="M24.697 0C11.2818 0 0.394043 11.648 0.394043 26C0.394043 40.352 11.2818 52 24.697 52C38.1123 52 49 40.352 49 26C49 11.648 38.1123 0 24.697 0ZM12.7157 42.328C13.7607 39.988 20.1281 37.7 24.697 37.7C29.266 37.7 35.6577 39.988 36.6784 42.328C33.3732 45.136 29.2174 46.8 24.697 46.8C20.1767 46.8 16.0209 45.136 12.7157 42.328ZM40.1537 38.558C36.6784 34.034 28.2453 32.5 24.697 32.5C21.1488 32.5 12.7157 34.034 9.24033 38.558C6.76142 35.074 5.25464 30.732 5.25464 26C5.25464 14.534 13.9794 5.2 24.697 5.2C35.4146 5.2 44.1394 14.534 44.1394 26C44.1394 30.732 42.6326 35.074 40.1537 38.558ZM24.697 10.4C19.9822 10.4 16.191 14.456 16.191 19.5C16.191 24.544 19.9822 28.6 24.697 28.6C29.4118 28.6 33.2031 24.544 33.2031 19.5C33.2031 14.456 29.4118 10.4 24.697 10.4ZM24.697 23.4C22.6799 23.4 21.0516 21.658 21.0516 19.5C21.0516 17.342 22.6799 15.6 24.697 15.6C26.7142 15.6 28.3425 17.342 28.3425 19.5C28.3425 21.658 26.7142 23.4 24.697 23.4Z" fill="#14213D"/>
</svg>
