<svg width="88" height="68" viewBox="0 0 88 68" fill="none" xmlns="http://www.w3.org/2000/svg">
<path d="M28.9453 0.0559462C27.674 -0.095725 26.3692 0.0602947 25.1406 0.532509C21.4649 1.93868 16.6721 4.13381 12.4844 7.51688L12.375 7.60282L12.2734 7.68876C10.4155 9.41112 9.39523 11.4771 8.09375 14.3059C6.79227 17.1348 5.4801 20.6258 4.28906 24.5559C1.90699 32.4163 0 41.9823 0 51.1575C0 52.1176 0.25164 53.1157 0.75 53.9934C3.97476 59.6858 9.55028 62.8579 14.5156 64.7591C19.4406 66.6447 23.6151 67.284 26 67.3684C26.0777 67.3712 26.2746 67.3997 26.2812 67.3997C27.9116 67.3997 30.0291 66.7993 31.2188 64.5481L34.9062 57.5716C41.0121 58.6407 46.7928 58.6256 53.0625 57.5091L56.7734 64.5325C57.9668 66.8091 60.1039 67.3919 61.7188 67.3919C61.7248 67.3919 61.91 67.3708 61.9766 67.3684C64.3616 67.2862 68.5493 66.6414 73.4844 64.7513C78.4436 62.8519 84.0097 59.6873 87.2344 54.0091C87.749 53.1161 88 52.1131 88 51.1575C88 41.9823 86.0895 32.4116 83.6953 24.5403C82.4982 20.6047 81.1825 17.1001 79.8672 14.2591C78.5518 11.418 77.4933 9.33257 75.6328 7.61063L75.5312 7.5247L75.4297 7.43876C71.2858 4.08878 66.5158 1.91858 62.8516 0.524696C60.401 -0.409241 57.6367 -0.0773692 55.4688 1.41532C53.7945 2.56667 53.2271 4.55867 52.7891 6.50126H35.2109C34.7713 4.56039 34.2074 2.56655 32.5391 1.41532C31.4546 0.66698 30.2167 0.207617 28.9453 0.0559462ZM28 8.00126C28 11.5455 30.9557 14.5013 34.5 14.5013H53.4922C57.0316 14.5013 59.9957 11.5398 60 8.00126H60.0078C63.1533 9.19778 67.1851 11.1329 70.25 13.5716C70.3206 13.6593 71.5099 15.2605 72.6016 17.6184C73.717 20.0276 74.9351 23.2391 76.0391 26.8684C78.1844 33.9218 79.7954 42.6065 79.8906 50.47C77.9629 53.4738 74.4105 55.8327 70.625 57.2825C67.2176 58.5875 64.3908 58.926 62.9453 59.0872L61.0938 55.5794C62.4666 55.1766 63.8304 54.7809 65.2812 54.2903C65.7871 54.1288 66.2558 53.8681 66.6599 53.5235C67.0639 53.179 67.3954 52.7574 67.6348 52.2834C67.8743 51.8094 68.017 51.2925 68.0546 50.7628C68.0922 50.2331 68.0239 49.7012 67.8538 49.1981C67.6837 48.695 67.4152 48.2309 67.0638 47.8327C66.7124 47.4345 66.2853 47.1103 65.8073 46.8789C65.3293 46.6475 64.8101 46.5136 64.2798 46.485C63.7495 46.4563 63.2189 46.5336 62.7188 46.7122C47.3984 51.8928 39.8603 51.8982 25.3359 46.7356C24.8345 46.5481 24.3005 46.4631 23.7656 46.4856C22.8359 46.5303 21.9509 46.8978 21.2629 47.5248C20.575 48.1518 20.1273 48.9991 19.9968 49.9207C19.8663 50.8423 20.0613 51.7805 20.5482 52.5739C21.035 53.3672 21.7833 53.9659 22.6641 54.2669C24.1196 54.7842 25.5002 55.2061 26.8828 55.6263L25.0547 59.0872C23.6101 58.9262 20.7823 58.5871 17.375 57.2825C13.5896 55.8332 10.039 53.4839 8.10938 50.4778C8.20365 42.6123 9.8089 33.926 11.9453 26.8763C13.0443 23.2499 14.2549 20.0505 15.3594 17.6497C16.4385 15.3041 17.6283 13.7068 17.6641 13.6497C20.7867 11.1672 24.8435 9.20881 28 8.00126ZM32.1562 26.4856C28.8403 26.4856 26.1562 30.058 26.1562 34.47C26.1562 38.882 28.8403 42.4544 32.1562 42.4544C35.4723 42.4544 38.1562 38.882 38.1562 34.47C38.0842 30.058 35.4842 26.0456 32.1562 26.4856ZM55.9844 26.5481C54.3931 26.5481 52.867 27.391 51.7417 28.8913C50.6165 30.3916 49.9844 32.4264 49.9844 34.5481C49.9844 36.6699 50.6165 38.7047 51.7417 40.205C52.867 41.7053 54.3931 42.5481 55.9844 42.5481C57.5757 42.5481 59.1018 41.7053 60.227 40.205C61.3522 38.7047 61.9844 36.6699 61.9844 34.5481C61.9844 32.4264 61.3522 30.3916 60.227 28.8913C59.1018 27.391 57.5757 26.5481 55.9844 26.5481Z" fill="white"/>
</svg>
