<svg width="72" height="72" viewBox="0 0 72 72" fill="none" xmlns="http://www.w3.org/2000/svg">
<path d="M8 0C3.58 0 0 3.58 0 8V64C0 68.42 3.58 72 8 72H64C68.42 72 72 68.42 72 64V8C72 3.58 68.42 0 64 0H8ZM8 8H64V64H8V8ZM19.1172 13.2656C15.6892 13.2656 13.6328 15.3263 13.6328 18.0703C13.6328 20.8143 15.6894 22.8672 18.7734 22.8672C22.2014 22.8672 24.2578 20.8143 24.2578 18.0703C24.2578 15.3263 22.2012 13.2656 19.1172 13.2656ZM13.9062 28V56H24V28H13.9062ZM32.3281 28V56H42.4219V40.6953C42.4219 36.1393 45.6724 35.4844 46.6484 35.4844C47.6244 35.4844 50.2344 36.4633 50.2344 40.6953V56H60V40.6953C60 31.9073 56.0949 28 51.2109 28C46.3269 28 43.7219 29.6262 42.4219 31.9062V28H32.3281Z" fill="white"/>
</svg>
