<svg width="72" height="72" viewBox="0 0 72 72" fill="none" xmlns="http://www.w3.org/2000/svg">
<path d="M8 0C3.588 0 0 3.588 0 8V64C0 68.412 3.588 72 8 72H64C68.412 72 72 68.412 72 64V8C72 3.588 68.412 0 64 0H8ZM8 8H64L64.0078 64H8V8ZM46.2656 16.4531C40.7776 16.4531 36.3203 20.9144 36.3203 26.3984C36.3203 27.4264 36.6641 28.1129 36.6641 28.7969C28.4361 28.4569 21.2375 24.3436 16.4375 18.5156C15.4095 19.8876 15.0625 21.5965 15.0625 23.3125C15.0625 26.7405 16.7794 29.4906 19.5234 31.8906C17.8114 31.5466 16.4345 31.1996 15.0625 30.5156C15.0625 35.3156 18.4893 39.0892 22.9453 40.1172C21.9173 40.4612 21.2311 40.4609 20.2031 40.4609C19.8591 40.4609 19.1684 40.1172 18.4844 40.1172C19.8564 43.8892 23.2862 46.9688 27.7422 46.9688C24.3142 49.3688 19.8544 51.0859 15.3984 51.0859H13C17.456 53.8259 22.6019 55.5469 28.0859 55.5469C46.2579 55.5469 56.2031 40.4577 56.2031 27.4297V26.0547C57.9191 24.6827 59.6278 22.9702 61.0078 20.9062C58.9518 21.9382 57.2357 22.281 55.1797 22.625C57.2357 21.257 58.9488 19.5406 59.6328 17.1406C57.9168 18.1686 55.8609 19.1951 53.4609 19.5391C51.7449 17.4831 49.0096 16.4531 46.2656 16.4531Z" fill="white"/>
</svg>
